# xmcd
#
# Track frame offsets: 
#        150
#        29862
#        49914
#        67334
#        91599
#        122687
#        150357
#        172422
#        184933
#        198254
#        214454
#        228869
#        260349
#        278634
#        294504
#        310704
#        329194
#        343118
#
# Disc length: 4777 seconds
#
# Revision: 0
# Processed by: cddbd v1.5.2PL0 Copyright (c) Steve Scherf et al.
# Submitted via: ExactAudioCopy v0.99pb5
#
DISCID=1b12a712
DTITLE=Various Artist - The Old Grey Whistle Test - Blues
DYEAR=2011
DGENRE=Blues
TTITLE0=Albert King - I'll Play The Blues For You
TTITLE1=Rory Gallagher - Hands Off
TTITLE2=ZZ Top - La Grange
TTITLE3=Muddy Waters - Mannish Boy
TTITLE4=R L Burnside - Bad Luck City
TTITLE5=Kenny Wayne Shepherd Band - Deja Voodoo
TTITLE6=Stevie Ray Vaughan and Double Trouble - The Things (That) I Used
TTITLE6=To Do)
TTITLE7=Elmore James - The Sky Is Crying
TTITLE8=Fleetwood Mac - My Heart Beat Like A Hammer
TTITLE9=Chicken Shack - You Ain't No Good
TTITLE10=Bonnie Raitt - Love Me Like A Man
TTITLE11=Alvin Lee - The Bluest River
TTITLE12=Robin Trower - Precious Gift
TTITLE13=Roy Buchanan - Sweet Dreams
TTITLE14=Little Feat - Lafayette Railroad
TTITLE15=The Allman Brothers Band - Statesboro Blues
TTITLE16=Paul Butterfield Band - Born In Chicago
TTITLE17=Freddie King - Going Down
EXTD=
EXTT0=
EXTT1=
EXTT2=
EXTT3=
EXTT4=
EXTT5=
EXTT6=
EXTT7=
EXTT8=
EXTT9=
EXTT10=
EXTT11=
EXTT12=
EXTT13=
EXTT14=
EXTT15=
EXTT16=
EXTT17=
PLAYORDER=
